<svg width="82" height="82" viewBox="0 0 82 82" fill="none" xmlns="http://www.w3.org/2000/svg">
<circle cx="41" cy="41" r="41" fill="url(#paint0_linear)"/>
<path d="M23.8968 18.6897L58.5044 18.7246C61.4183 18.7276 63.7861 21.891 63.7821 25.776L63.7542 53.3952C63.7503 57.2812 61.3762 60.441 58.4623 60.438L56.815 60.4364L56.804 71.3841C56.8035 71.8256 56.6098 72.2243 56.3071 72.4055C56.196 72.4715 56.0792 72.5039 55.9624 72.5038C55.7607 72.5036 55.5616 72.407 55.4054 72.2209L45.4486 60.4249L23.8555 60.4031C20.9408 60.4002 18.5731 57.2367 18.577 53.3495L18.5828 47.6079C18.5834 46.9893 18.9596 46.4877 19.4244 46.4882C19.8891 46.4886 20.2643 46.991 20.2637 47.6096L20.2579 53.3512C20.2552 56.0013 21.8701 58.16 23.8578 58.162L45.7694 58.1841C45.9745 58.1843 46.1727 58.2843 46.3264 58.4671L55.1247 68.8903L55.1344 59.3141C55.135 58.6956 55.5112 58.194 55.976 58.1944L58.4637 58.197C60.4506 58.199 62.0698 56.0447 62.0725 53.3935L62.1004 25.7743C62.103 23.1253 60.4882 20.9677 58.5013 20.9657L23.8937 20.9308C21.906 20.9288 20.2868 23.082 20.2841 25.7321L20.2784 31.3863C20.2778 32.0049 19.9016 32.5065 19.4368 32.506C18.972 32.5055 18.5969 32.0032 18.5975 31.3846L18.6032 25.7304C18.6079 21.8454 20.9821 18.6868 23.8968 18.6897Z" fill="white"/>
<path d="M19.3982 30.2194C19.8569 30.2198 20.2267 31.145 20.2256 32.2844L20.211 46.7111C20.2099 47.8505 19.8381 48.7749 19.3794 48.7744C18.9207 48.774 18.5508 47.8488 18.552 46.7094L18.5665 32.2827C18.5677 31.1433 18.9394 30.2189 19.3982 30.2194Z" fill="white"/>
<path d="M59.1195 59.2741C61.5745 59.2765 63.5666 56.6251 63.5699 53.352L63.5977 25.7328C63.601 22.4619 61.6144 19.8054 59.1594 19.8029L24.5517 19.7679C22.0967 19.7655 20.1039 22.4169 20.1006 25.6889L20.0727 53.3081C20.0694 56.5823 22.0561 59.2367 24.5119 59.2391L46.4252 59.2613L56.6196 71.3398L56.6318 59.2716L59.1195 59.2741Z" fill="white"/>
<path d="M33 48.0365C33.1053 48.1826 35.6531 51.6177 40.6419 51.6058C45.5037 51.5941 48.137 48.1732 48.2461 48.0281" stroke="#018BCC" stroke-width="1.8" stroke-linejoin="round"/>
<path d="M27.6643 38.2314H29.5039L29.7748 39H30.7639L29.0818 34.527H28.1116L26.4295 39H27.3934L27.6643 38.2314ZM29.2078 37.4061H27.9604L28.5778 35.661H28.5904L29.2078 37.4061ZM32.3301 39.0756C32.7648 39.0756 33.105 38.9748 33.357 38.7732C33.6027 38.5779 33.7287 38.3259 33.7287 38.0172C33.7287 37.7652 33.6657 37.5636 33.5397 37.4124C33.4137 37.2612 33.2625 37.1604 33.0861 37.11C32.9034 37.0596 32.727 37.0218 32.5506 36.9903C32.3679 36.9651 32.2167 36.9273 32.0907 36.8832C31.9647 36.8391 31.9017 36.7635 31.9017 36.6627C31.9017 36.5682 31.9395 36.4926 32.0214 36.4296C32.1033 36.3729 32.2104 36.3414 32.3553 36.3414C32.5065 36.3414 32.6262 36.3792 32.7144 36.4548C32.7963 36.5304 32.8467 36.6249 32.853 36.7383H33.7161C33.6972 36.4485 33.5838 36.1902 33.3633 35.9634C33.1428 35.7366 32.8089 35.6232 32.3616 35.6232C31.9647 35.6232 31.6497 35.7303 31.404 35.9382C31.1583 36.1461 31.0386 36.4044 31.0386 36.7131C31.0386 36.9588 31.1016 37.1541 31.2276 37.299C31.3536 37.4439 31.5048 37.5447 31.6875 37.5951C31.8702 37.6455 32.0466 37.6833 32.2293 37.7148C32.4057 37.7463 32.5569 37.7841 32.6829 37.8282C32.8089 37.8786 32.8719 37.9542 32.8719 38.055C32.8719 38.1495 32.8278 38.2188 32.7396 38.2755C32.6514 38.3322 32.5254 38.3574 32.3553 38.3574C32.1789 38.3574 32.0466 38.3133 31.9584 38.2314C31.8639 38.1495 31.8135 38.0487 31.8072 37.929H30.9C30.9567 38.6913 31.4292 39.0756 32.3301 39.0756ZM35.209 37.1982V34.275H34.3144V39H35.209V38.2629L35.7067 37.6959L36.5635 39H37.6219L36.2989 37.1037L37.5337 35.6988H36.4123L35.209 37.1982ZM41.1504 36.4989H41.1378L40.0983 34.527H39.0336L40.6842 37.4376V39H41.604V37.4376L43.2546 34.527H42.1899L41.1504 36.4989ZM46.8626 38.5968C47.2217 38.2629 47.4044 37.7841 47.4044 37.1604V34.527H46.4846V37.1856C46.4846 37.5132 46.4027 37.7715 46.2452 37.9605C46.0814 38.1495 45.8357 38.244 45.5081 38.244C45.1805 38.244 44.9348 38.1495 44.7773 37.9605C44.6135 37.7715 44.5316 37.5132 44.5316 37.1856V34.527H43.6118V37.1604C43.6118 37.7841 43.7945 38.2629 44.1536 38.5968C44.5127 38.9307 44.9663 39.0945 45.5081 39.0945C46.0499 39.0945 46.5035 38.9307 46.8626 38.5968ZM50.0759 37.7778H50.0633L48.923 34.527H47.8898L49.5845 39H50.5295L52.2242 34.527H51.2162L50.0759 37.7778ZM53.4734 38.2314H55.313L55.5839 39H56.573L54.8909 34.527H53.9207L52.2386 39H53.2025L53.4734 38.2314ZM55.0169 37.4061H53.7695L54.3869 35.661H54.3995L55.0169 37.4061Z" fill="#018AC9"/>
<defs>
<linearGradient id="paint0_linear" x1="41" y1="0" x2="41" y2="82" gradientUnits="userSpaceOnUse">
<stop stop-color="#0095DA"/>
<stop offset="1" stop-color="#0089C8"/>
</linearGradient>
</defs>
</svg>
